<?xml version="1.0" encoding="UTF-8" standalone="no"?>
<svg
   class="bd-placeholder-img flex-shrink-0 me-2 rounded"
   width="80"
   height="80"
   role="img"
   aria-label="Placeholder: 32x32"
   preserveAspectRatio="xMidYMid slice"
   focusable="false"
   version="1.1"
   id="svg4"
   sodipodi:docname="tmp.svg"
   inkscape:version="1.1 (ce6663b3b7, 2021-05-25)"
   xmlns:inkscape="http://www.inkscape.org/namespaces/inkscape"
   xmlns:sodipodi="http://sodipodi.sourceforge.net/DTD/sodipodi-0.dtd"
   xmlns="http://www.w3.org/2000/svg"
   xmlns:svg="http://www.w3.org/2000/svg">
  <defs
     id="defs8" />
  <sodipodi:namedview
     id="namedview6"
     pagecolor="#ffffff"
     bordercolor="#666666"
     borderopacity="1.0"
     inkscape:pageshadow="2"
     inkscape:pageopacity="0.0"
     inkscape:pagecheckerboard="0"
     showgrid="false"
     inkscape:zoom="1.8649941"
     inkscape:cx="-41.018896"
     inkscape:cy="96.783146"
     inkscape:window-width="1854"
     inkscape:window-height="1016"
     inkscape:window-x="66"
     inkscape:window-y="27"
     inkscape:window-maximized="1"
     inkscape:current-layer="svg4" />
  <rect
     width="100%"
     height="100%"
     fill="#32CD32"
     id="rect2"
     style="fill:#15c648;fill-opacity:1" />
  <g
     id="g69"
     transform="matrix(-0.0743529,-0.0743529,0.0743529,-0.0743529,40.000289,78.069002)"
     style="fill:#ffffff">
    <g
       id="g14"
       transform="rotate(180,256.00407,256.00018)">
	<g
   id="g12">
		<path
   style="color:#000000;-inkscape-stroke:none"
   d="m 506.134,241.843 c -0.006,-0.006 -0.011,-0.013 -0.018,-0.019 l -104.504,-104 c -7.829,-7.791 -20.492,-7.762 -28.285,0.068 -7.792,7.829 -7.762,20.492 0.067,28.284 L 443.558,236 H 20 c -11.046,0 -20,8.954 -20,20 0,11.046 8.954,20 20,20 h 423.557 l -70.162,69.824 c -7.829,7.792 -7.859,20.455 -0.067,28.284 7.793,7.831 20.457,7.858 28.285,0.068 l 104.504,-104 c 0.006,-0.006 0.011,-0.013 0.018,-0.019 7.833,-7.818 7.808,-20.522 -10e-4,-28.314 z"
   id="path10" />

	</g>

</g>
    <g
       id="g16"
       style="fill:#ffffff">
</g>
    <g
       id="g18"
       style="fill:#ffffff">
</g>
    <g
       id="g20"
       style="fill:#ffffff">
</g>
    <g
       id="g22"
       style="fill:#ffffff">
</g>
    <g
       id="g24"
       style="fill:#ffffff">
</g>
    <g
       id="g26"
       style="fill:#ffffff">
</g>
    <g
       id="g28"
       style="fill:#ffffff">
</g>
    <g
       id="g30"
       style="fill:#ffffff">
</g>
    <g
       id="g32"
       style="fill:#ffffff">
</g>
    <g
       id="g34"
       style="fill:#ffffff">
</g>
    <g
       id="g36"
       style="fill:#ffffff">
</g>
    <g
       id="g38"
       style="fill:#ffffff">
</g>
    <g
       id="g40"
       style="fill:#ffffff">
</g>
    <g
       id="g42"
       style="fill:#ffffff">
</g>
    <g
       id="g44"
       style="fill:#ffffff">
</g>
  </g>
</svg>
